<!DOCTYPE svg PUBLIC "-//W3C//DTD SVG 1.1//EN" "http://www.w3.org/Graphics/SVG/1.1/DTD/svg11.dtd">
<svg xmlns="http://www.w3.org/2000/svg" xmlns:xlink="http://www.w3.org/1999/xlink" version="1.1" id="Layer_1" x="0px" y="0px" width="100px" height="100px" viewBox="0 0 100 100" enable-background="new 0 0 100 100" xml:space="preserve">
<path fill="#fff" d="M18.188,7.75c4.91,0,8.906,3.997,8.906,8.906c0,4.911-3.996,8.906-8.906,8.906c-4.911,0-8.906-3.995-8.906-8.906  C9.281,11.747,13.276,7.75,18.188,7.75 M18.188,4.469C11.456,4.469,6,9.925,6,16.656c0,6.733,5.456,12.188,12.188,12.188  c6.731,0,12.188-5.455,12.188-12.188C30.375,9.925,24.918,4.469,18.188,4.469"/>
<path fill="#fff" d="M51,7.75c4.91,0,8.906,3.997,8.906,8.906c0,4.911-3.996,8.906-8.906,8.906c-4.911,0-8.906-3.995-8.906-8.906  C42.094,11.747,46.089,7.75,51,7.75 M51,4.469c-6.732,0-12.188,5.457-12.188,12.188c0,6.733,5.456,12.188,12.188,12.188  c6.731,0,12.188-5.455,12.188-12.188C63.188,9.925,57.731,4.469,51,4.469"/>
<path fill="#fff" d="M83.812,7.75c4.91,0,8.906,3.997,8.906,8.906c0,4.911-3.996,8.906-8.906,8.906c-4.911,0-8.906-3.995-8.906-8.906  C74.906,11.747,78.901,7.75,83.812,7.75 M83.812,4.469c-6.732,0-12.188,5.457-12.188,12.188c0,6.733,5.456,12.188,12.188,12.188  C90.543,28.844,96,23.389,96,16.656C96,9.925,90.543,4.469,83.812,4.469"/>
<path fill="#fff" d="M18.188,40.562c4.91,0,8.906,3.997,8.906,8.906c0,4.911-3.996,8.906-8.906,8.906c-4.911,0-8.906-3.995-8.906-8.906  C9.281,44.56,13.276,40.562,18.188,40.562 M18.188,37.281C11.456,37.281,6,42.738,6,49.469c0,6.733,5.456,12.188,12.188,12.188  c6.731,0,12.188-5.455,12.188-12.188C30.375,42.738,24.918,37.281,18.188,37.281"/>
<path fill="#fff" d="M51,40.562c4.91,0,8.906,3.997,8.906,8.906c0,4.911-3.996,8.906-8.906,8.906c-4.911,0-8.906-3.995-8.906-8.906  C42.094,44.56,46.089,40.562,51,40.562 M51,37.281c-6.732,0-12.188,5.457-12.188,12.188c0,6.733,5.456,12.188,12.188,12.188  c6.731,0,12.188-5.455,12.188-12.188C63.188,42.738,57.731,37.281,51,37.281"/>
<path fill="#fff" d="M83.812,40.562c4.91,0,8.906,3.997,8.906,8.906c0,4.911-3.996,8.906-8.906,8.906c-4.911,0-8.906-3.995-8.906-8.906  C74.906,44.56,78.901,40.562,83.812,40.562 M83.812,37.281c-6.732,0-12.188,5.457-12.188,12.188c0,6.733,5.456,12.188,12.188,12.188  C90.543,61.656,96,56.202,96,49.469C96,42.738,90.543,37.281,83.812,37.281"/>
<path fill="#fff" d="M18.188,73.375c4.91,0,8.906,3.997,8.906,8.906c0,4.911-3.996,8.906-8.906,8.906c-4.911,0-8.906-3.995-8.906-8.906  C9.281,77.372,13.276,73.375,18.188,73.375 M18.188,70.094C11.456,70.094,6,75.55,6,82.281c0,6.733,5.456,12.188,12.188,12.188  c6.731,0,12.188-5.455,12.188-12.188C30.375,75.55,24.918,70.094,18.188,70.094"/>
<path fill="#fff" d="M51,73.375c4.91,0,8.906,3.997,8.906,8.906c0,4.911-3.996,8.906-8.906,8.906c-4.911,0-8.906-3.995-8.906-8.906  C42.094,77.372,46.089,73.375,51,73.375 M51,70.094c-6.732,0-12.188,5.457-12.188,12.188c0,6.733,5.456,12.188,12.188,12.188  c6.731,0,12.188-5.455,12.188-12.188C63.188,75.55,57.731,70.094,51,70.094"/>
<path fill="#fff" d="M83.812,73.375c4.91,0,8.906,3.997,8.906,8.906c0,4.911-3.996,8.906-8.906,8.906c-4.911,0-8.906-3.995-8.906-8.906  C74.906,77.372,78.901,73.375,83.812,73.375 M83.812,70.094c-6.732,0-12.188,5.457-12.188,12.188  c0,6.733,5.456,12.188,12.188,12.188C90.543,94.469,96,89.014,96,82.281C96,75.55,90.543,70.094,83.812,70.094"/>
</svg>
