<svg xmlns="http://www.w3.org/2000/svg" enable-background="new 0 0 64 64" viewBox="0 0 64 64"><path d="M59.53,6.62h-7.14h-9.45v-4.3C42.94,1.04,41.9,0,40.62,0H23.38c-1.28,0-2.32,1.04-2.32,2.32v4.3h-9.45H4.47
		c-1.28,0-2.32,1.04-2.32,2.32c0,1.28,1.04,2.32,2.32,2.32h4.82v41.61C9.29,59.01,14.28,64,20.42,64h23.16
		c6.14,0,11.13-4.99,11.13-11.13V11.26h4.82c1.28,0,2.32-1.04,2.32-2.32C61.85,7.66,60.81,6.62,59.53,6.62z M25.7,4.64H38.3v1.98
		H25.7V4.64z M50.07,52.87c0,3.58-2.91,6.49-6.49,6.49H20.42c-3.58,0-6.49-2.91-6.49-6.49V11.26h36.15V52.87z"/><path d="M23.38 51.47c1.28 0 2.32-1.04 2.32-2.32V29.21c0-1.28-1.04-2.32-2.32-2.32-1.28 0-2.32 1.04-2.32 2.32v19.93C21.06 50.43 22.1 51.47 23.38 51.47zM32 51.47c1.28 0 2.32-1.04 2.32-2.32V21.47c0-1.28-1.04-2.32-2.32-2.32s-2.32 1.04-2.32 2.32v27.67C29.68 50.43 30.72 51.47 32 51.47zM40.62 51.47c1.28 0 2.32-1.04 2.32-2.32V29.21c0-1.28-1.04-2.32-2.32-2.32-1.28 0-2.32 1.04-2.32 2.32v19.93C38.3 50.43 39.34 51.47 40.62 51.47z"/></svg>