<svg xmlns="http://www.w3.org/2000/svg" width="32" height="32" viewBox="0 0 32 32"><path d="M10.3,17.744l-.472,3.3a1,1,0,0,0,.99,1.142.987.987,0,0,0,.142-.01l3.3-.472a1,1,0,0,0,.565-.283l9.6-9.6,1.886-1.885a1,1,0,0,0,0-1.414L23.479,5.693a1,1,0,0,0-1.414,0L20.179,7.579l-9.6,9.6A1,1,0,0,0,10.3,17.744Zm12.476-9.93,1.414,1.415-.472.471L22.3,8.286ZM12.229,18.357,20.886,9.7,22.3,11.114l-8.657,8.657-1.649.236Z" fill="#fff"/><path d="M27,15a1,1,0,0,0-1,1v9a1,1,0,0,1-1,1H7a1,1,0,0,1-1-1V7A1,1,0,0,1,7,6h9a1,1,0,0,0,0-2H7A3,3,0,0,0,4,7V25a3,3,0,0,0,3,3H25a3,3,0,0,0,3-3V16A1,1,0,0,0,27,15Z" fill="#fff"/></svg>
