<svg xmlns="http://www.w3.org/2000/svg" id="Layer_1" data-name="Layer 1" viewBox="0 0 128 128"><defs><style>.cls-1{fill:none;stroke:#fff;stroke-linecap:round;stroke-linejoin:round;stroke-width:8px;}</style></defs><title>Artboard 21</title><path fill="#fff"  stroke="#fff" class="cls-1" d="M98.34,32.34A8,8,0,0,1,92.69,46H74a8,8,0,0,1-8-8V26" style="fill: none; stroke: #fff; stroke-linecap: round; stroke-linejoin: round; stroke-width: 8px;"/><path class="cls-1" d="M98.34,32.34,72.14,9.61A8,8,0,0,0,67.33,8H32a8,8,0,0,0-8,8v96a8,8,0,0,0,8,8H96a8,8,0,0,0,8-8V62" style="fill: none; stroke: #fff; stroke-linecap: round; stroke-linejoin: round; stroke-width: 8px;"/><path class="cls-1" d="M80,78a9.94,9.94,0,0,0-5.09,1.4A12,12,0,1,0,51,78c0,.16,0,.31,0,.47A10,10,0,1,0,48,98H80a10,10,0,0,0,0-20Z" style="fill: none; stroke: #fff; stroke-linecap: round; stroke-linejoin: round; stroke-width: 8px;"/>
</svg>
