<svg xmlns="http://www.w3.org/2000/svg" enable-background="new 0 0 1024 1024" viewBox="0 0 1024 1024"><path d="M697 270c0 9.8-.7 19.5-2 29.2.4-2.7.7-5.3 1.1-8-2.6 18.8-7.6 37-14.9 54.5 1-2.4 2-4.8 3-7.2-5.4 12.6-11.8 24.6-19.5 36-2 2.9-4 5.8-6.1 8.6-4.4 5.9 3.8-4.7.7-.9-1.1 1.4-2.2 2.7-3.3 4.1-4.2 5-8.6 9.9-13.2 14.5-4.6 4.6-9.5 9.1-14.5 13.2-1.3 1.1-2.7 2.2-4.1 3.3-3.9 3.1 6.8-5.1.9-.7-2.8 2.1-5.7 4.1-8.6 6.1-11.3 7.6-23.4 14.1-36 19.5 2.4-1 4.8-2 7.2-3-17.5 7.3-35.8 12.3-54.5 14.9 2.7-.4 5.3-.7 8-1.1-19.4 2.6-39 2.6-58.3 0 2.7.4 5.3.7 8 1.1-18.8-2.6-37-7.6-54.5-14.9 2.4 1 4.8 2 7.2 3-12.6-5.4-24.6-11.8-36-19.5-2.9-2-5.8-4-8.6-6.1-5.9-4.4 4.7 3.8.9.7-1.4-1.1-2.7-2.2-4.1-3.3-5-4.2-9.9-8.6-14.5-13.2-4.6-4.6-9.1-9.5-13.2-14.5-1.1-1.3-2.2-2.7-3.3-4.1-3.1-3.9 5.1 6.8.7.9-2.1-2.8-4.1-5.7-6.1-8.6-7.6-11.3-14.1-23.4-19.5-36 1 2.4 2 4.8 3 7.2-7.3-17.5-12.3-35.8-14.9-54.5.4 2.7.7 5.3 1.1 8-2.6-19.4-2.6-39 0-58.3-.4 2.7-.7 5.3-1.1 8 2.6-18.8 7.6-37 14.9-54.5-1 2.4-2 4.8-3 7.2 5.4-12.6 11.8-24.6 19.5-36 2-2.9 4-5.8 6.1-8.6 4.4-5.9-3.8 4.7-.7.9 1.1-1.4 2.2-2.7 3.3-4.1 4.2-5 8.6-9.9 13.2-14.5 4.6-4.6 9.5-9.1 14.5-13.2 1.3-1.1 2.7-2.2 4.1-3.3 3.9-3.1-6.8 5.1-.9.7 2.8-2.1 5.7-4.1 8.6-6.1 11.3-7.6 23.4-14.1 36-19.5-2.4 1-4.8 2-7.2 3 17.5-7.3 35.8-12.3 54.5-14.9-2.7.4-5.3.7-8 1.1 19.4-2.6 39-2.6 58.3 0-2.7-.4-5.3-.7-8-1.1 18.8 2.6 37 7.6 54.5 14.9-2.4-1-4.8-2-7.2-3 12.6 5.4 24.6 11.8 36 19.5 2.9 2 5.8 4 8.6 6.1 5.9 4.4-4.7-3.8-.9-.7 1.4 1.1 2.7 2.2 4.1 3.3 5 4.2 9.9 8.6 14.5 13.2s9.1 9.5 13.2 14.5c1.1 1.3 2.2 2.7 3.3 4.1 3.1 3.9-5.1-6.8-.7-.9 2.1 2.8 4.1 5.7 6.1 8.6 7.6 11.3 14.1 23.4 19.5 36-1-2.4-2-4.8-3-7.2 7.3 17.5 12.3 35.8 14.9 54.5-.4-2.7-.7-5.3-1.1-8C696.3 250.5 697 260.2 697 270c.1 15.7 13.8 30.7 30 30 16.2-.7 30.1-13.2 30-30-.2-49.4-15.1-99.3-43.8-139.7-29.8-41.9-70.5-73.2-118.8-91-47-17.4-100.6-18.8-148.8-5.2-46.6 13.1-90.1 40.7-120.9 78.2-33.1 40.3-52.8 88.2-57 140.2-4 49.8 8.6 101.3 34.4 144 24.9 41 62.3 75.5 106.2 95.4 48.7 22 101.8 28.4 154.3 17.8 47.5-9.6 92.3-34.8 125.8-69.7 33.8-35.2 57.7-81 65-129.4 2-13.5 3.5-26.9 3.5-40.5.1-15.7-13.8-30.7-30-30C710.7 240.7 697.1 253.2 697 270zM831 939c-21.4 0-42.8 0-64.2 0-51.3 0-102.6 0-153.9 0-61.8 0-123.7 0-185.5 0-52.8 0-105.6 0-158.5 0-25.1 0-50.2.1-75.3 0-2.5 0-5.1-.1-7.6-.4 2.7.4 5.3.7 8 1.1-5.4-.7-10.5-2.1-15.5-4.2 2.4 1 4.8 2 7.2 3-3.2-1.4-6.3-3.1-9.2-5-6.1-4.1 4.5 4.1.9.7-1.1-1-2.3-2-3.4-3.1-1.1-1.1-2.1-2.2-3.1-3.4-3.3-3.6 4.8 6.9.7.9-2-2.9-3.6-6-5-9.2 1 2.4 2 4.8 3 7.2-2.1-5-3.5-10.1-4.2-15.5.4 2.7.7 5.3 1.1 8-1.7-15.2-.4-31.1-.4-46.3 0-18.6.1-37.1 2.5-55.6-.4 2.7-.7 5.3-1.1 8 3.4-24.6 9.9-48.7 19.5-71.6-1 2.4-2 4.8-3 7.2 5.5-13.1 12-25.7 19.4-37.8 3.7-6 7.6-11.9 11.7-17.6 1-1.4 2.1-2.9 3.1-4.3.5-.7 1.1-1.4 1.6-2.1 2.7-3.6-2.3 3-2.3 2.9 1-2.9 5.1-6.4 7.1-8.7 9.1-10.7 19-20.8 29.5-30.1 2.5-2.2 5-4.3 7.5-6.4 1.4-1.1 2.7-2.2 4.1-3.3 1.6-1.3 4.4-3.2-2.9 2.3.9-.7 1.7-1.3 2.6-2 5.6-4.2 11.4-8.2 17.4-12 13.6-8.7 28-16.2 42.9-22.5-2.4 1-4.8 2-7.2 3 22.9-9.6 47-16.1 71.6-19.5-2.7.4-5.3.7-8 1.1 31.1-4.1 63.1-2.5 94.4-2.5 38.2 0 76.4 0 114.6 0 17.1 0 34.1.3 51.1 2.5-2.7-.4-5.3-.7-8-1.1 24.6 3.4 48.7 9.9 71.6 19.5-2.4-1-4.8-2-7.2-3 13.1 5.5 25.7 12 37.8 19.4 6 3.7 11.9 7.6 17.6 11.7 1.4 1 2.9 2.1 4.3 3.1.7.5 1.4 1.1 2.1 1.6 3.6 2.7-3-2.3-2.9-2.3 2.9 1 6.4 5.1 8.7 7.1 10.7 9.1 20.8 19 30.1 29.5 2.2 2.5 4.3 5 6.4 7.5 1.1 1.4 2.2 2.7 3.3 4.1 1.3 1.6 3.2 4.4-2.3-2.9.7.9 1.3 1.7 2 2.6 4.2 5.6 8.2 11.4 12 17.4 8.7 13.6 16.2 28 22.5 42.9-1-2.4-2-4.8-3-7.2 9.6 22.9 16.1 47 19.5 71.6-.4-2.7-.7-5.3-1.1-8 2.4 18.5 2.5 37 2.5 55.6 0 15.3 1.3 31.1-.4 46.3.4-2.7.7-5.3 1.1-8-.7 5.4-2.1 10.5-4.2 15.5 1-2.4 2-4.8 3-7.2-1.4 3.2-3.1 6.3-5 9.2-4.1 6.1 4.1-4.5.7-.9-1 1.1-2 2.3-3.1 3.4-1.1 1.1-2.2 2.1-3.4 3.1-3.6 3.3 6.9-4.8.9-.7-2.9 2-6 3.6-9.2 5 2.4-1 4.8-2 7.2-3-5 2.1-10.1 3.5-15.5 4.2 2.7-.4 5.3-.7 8-1.1C835.6 938.8 833.3 939 831 939c-15.7.2-30.7 13.7-30 30 .7 16.1 13.2 30.2 30 30 34.6-.4 66.3-21 79.8-53 7.6-18 7.2-36.3 7.2-55.4 0-13.4.2-26.9 0-40.3-.4-27.1-4.3-54.5-11.7-80.6-14.3-50.5-41.7-97.3-78.5-134.7-36.8-37.4-83.1-65.4-133.3-80.7-33.9-10.3-68.9-13.3-104.1-13.3-31.8 0-63.5 0-95.3 0-24.8 0-49.6 0-74.3 0-48.5 0-95.9 11.2-139.5 32.4-47.2 22.9-87.2 58.5-117.7 100.8-31.2 43.2-49.3 94.1-55.5 146.8-2 16.5-2 33.1-2 49.7 0 13.7-.1 27.4 0 41.2.3 31.9 18.4 63.5 47.6 77.5 13.3 6.4 27 9.5 41.7 9.5 12 0 23.9 0 35.9 0 23.6 0 47.2 0 70.8 0 31.3 0 62.6 0 93.9 0 35.5 0 71.1 0 106.6 0 35.9 0 71.7 0 107.6 0 32.3 0 64.6 0 96.8 0 25.2 0 50.5 0 75.7 0 14.2 0 28.5 0 42.7 0 1.9 0 3.8 0 5.7 0 15.7 0 30.7-13.8 30-30C860.3 952.7 847.8 939 831 939z"/></svg>