<svg xmlns="http://www.w3.org/2000/svg" id="Layer_1" enable-background="new 0 0 512 512" viewBox="0 0 512 512"><path fill="none" stroke="#fff" stroke-linecap="round" stroke-linejoin="round" stroke-miterlimit="10" stroke-width="20" d="M273.48,398.593v97.173c-2.715,0.159-5.461,0.233-8.218,0.233H48.415c-2.852,0-5.684-0.085-8.494-0.244
		v-95.805c0-65.001,52.457-118.116,116.78-118.148h0.053c1.718,0,3.446,0.042,5.175,0.117c29.786,1.304,56.677,13.785,76.591,33.349
		c0.255,0.233,0.509,0.488,0.764,0.742c20.073,20.084,32.882,47.463,34.091,77.821C273.449,395.412,273.48,397.003,273.48,398.593z"/><path fill="none" stroke="#fff" stroke-linecap="round" stroke-linejoin="round" stroke-miterlimit="10" stroke-width="20" d="M238.52 199.984c0 45.162-36.604 81.787-81.766 81.819h-.053c-45.183 0-81.819-36.636-81.819-81.819 0-45.183 36.636-81.819 81.819-81.819S238.52 154.801 238.52 199.984zM472.079 296.426v97.173c-2.715.159-5.461.233-8.218.233H273.374c-1.209-30.359-14.018-57.738-34.091-77.821-.254-.254-.509-.509-.764-.742v-17.486c0-66.751 55.32-120.968 122.007-118.031 30.168 1.325 57.367 14.103 77.355 34.091C459.005 234.977 472.079 264.18 472.079 296.426z"/><circle cx="355.301" cy="97.817" r="81.817" fill="none" stroke="#fff" stroke-linecap="round" stroke-linejoin="round" stroke-miterlimit="10" stroke-width="20"/></svg>
