<svg xmlns="http://www.w3.org/2000/svg" enable-background="new 0 0 66 66" viewBox="0 0 66 66">
    <path fill="#fff" d="M42.1829 43.6035c.6252.6252 1.7119.1855 1.7119-.707 0-.2964-.1304-.563-.3369-.7461l-2.9688-2.9688c-.1831-.2261-.4644-.3701-.7793-.3701-.8914 0-1.3325 1.0865-.707 1.7119L42.1829 43.6035zM26.887 26.8833c.3906-.3906.3906-1.0234 0-1.4141l-3.0698-3.0698c-.9359-.9359-2.3494.4788-1.4141 1.4141l3.0698 3.0698C25.8635 27.2739 26.4963 27.2739 26.887 26.8833zM23.8186 43.6025l3.0698-3.0801c.3896-.3911.3887-1.0244-.0024-1.4146-.3921-.3901-1.0254-.3887-1.4146.0024l-2.9976 3.0078c-.2256.1831-.3687.4639-.3687.7783C22.1052 43.7809 23.1882 44.233 23.8186 43.6025zM42.1829 22.3994l-3.0801 3.0801c-.3906.3906-.3906 1.0234 0 1.4141.3906.3906 1.0234.3906 1.4141 0l3.0801-3.0801c.3906-.3906.3906-1.0234 0-1.4141C43.2063 22.0088 42.5735 22.0088 42.1829 22.3994z"/>
    <path fill="#fff" d="M13.1243 65c6.7335 0 12.1226-5.5286 12.1226-12.123 0-6.6846-5.438-12.1226-12.1226-12.1226s-12.123 5.438-12.123 12.1226C1.0012 59.4676 6.3872 65 13.1243 65zM6.3433 60.3716c1.5083-2.2489 4.0326-3.6284 6.7756-3.6284 2.749 0 5.2767 1.3796 6.7855 3.6288C18.1075 61.9991 15.7335 63 13.1243 63 10.5146 63 8.1403 61.999 6.3433 60.3716zM13.1218 54.7397c-1.9805 0-3.5913-1.6108-3.5913-3.5913s1.6108-3.5913 3.5913-3.5913 3.5913 1.6108 3.5913 3.5913S15.1023 54.7397 13.1218 54.7397zM13.1243 42.7544c5.5815 0 10.1226 4.541 10.1226 10.1226 0 2.231-.7341 4.2887-1.9613 5.9636-1.1681-1.5686-2.7601-2.739-4.5635-3.4208 1.2159-1.0264 1.9911-2.5593 1.9911-4.2714 0-3.083-2.5083-5.5913-5.5913-5.5913s-5.5913 2.5083-5.5913 5.5913c0 1.7119.7751 3.2447 1.9909 4.2712-1.8011.6818-3.3916 1.852-4.5592 3.4205-1.2271-1.6749-1.961-3.7324-1.961-5.9631C3.0012 47.2954 7.5422 42.7544 13.1243 42.7544zM52.8757 1c-6.6846 0-12.1226 5.438-12.1226 12.1226 0 3.1824 1.2421 6.0735 3.255 8.2387.0226.0309.0502.0558.0765.0842 2.2109 2.3343 5.3297 3.8002 8.791 3.8002 3.4684 0 6.5928-1.4721 8.8046-3.8148.0179-.0201.0374-.0375.0535-.0588 2.0188-2.1663 3.265-5.0618 3.265-8.2495C64.9988 6.438 59.5603 1 52.8757 1zM52.8757 3c5.582 0 10.123 4.541 10.123 10.1226 0 2.2302-.7336 4.2874-1.9601 5.962-1.1671-1.5689-2.7584-2.7397-4.561-3.4225 1.2136-1.0264 1.9874-2.5578 1.9874-4.268 0-3.083-2.5083-5.5913-5.5913-5.5913-3.0835 0-5.5918 2.5083-5.5918 5.5913 0 1.7097.7733 3.2404 1.9863 4.2669-1.8004.6821-3.3901 1.8525-4.5571 3.4207-1.2252-1.6741-1.9579-3.7302-1.9579-5.9591C42.7532 7.541 47.2942 3 52.8757 3zM52.8689 14.9834c-.0029 0-.0057.0006-.0087.0006-1.9741-.0076-3.5782-1.6141-3.5782-3.59 0-1.9805 1.6113-3.5913 3.5918-3.5913s3.5913 1.6108 3.5913 3.5913c0 1.9772-1.6058 3.585-3.5817 3.5903C52.8785 14.9844 52.8738 14.9834 52.8689 14.9834zM46.0919 20.6141c1.5054-2.2463 4.0244-3.6249 6.7626-3.6298.0065 0 .0128.001.0193.001.0046 0 .009-.0007.0137-.0007 2.7435.0063 5.2648 1.3854 6.7698 3.632-1.7971 1.6277-4.1716 2.6289-6.7815 2.6289C50.2646 23.2456 47.8892 22.2433 46.0919 20.6141zM1.0012 13.1226c0 6.6345 5.4314 12.123 12.123 12.123 6.6718 0 12.1226-5.4692 12.1226-12.123C25.2468 6.438 19.8088 1 13.1243 1S1.0012 6.438 1.0012 13.1226zM6.3412 20.6152c1.5051-2.2468 4.024-3.6257 6.7625-3.6308.0061 0 .012.0009.0181.0009.005 0 .0098-.0007.0148-.0007 2.7435.0059 5.2647 1.3846 6.7699 3.631-1.7971 1.6284-4.172 2.63-6.7823 2.63C10.5135 23.2456 8.1384 22.2438 6.3412 20.6152zM9.5305 11.394c0-1.9805 1.6108-3.5913 3.5913-3.5913s3.5913 1.6108 3.5913 3.5913c0 1.9769-1.6053 3.5845-3.5809 3.5903-.0045 0-.0088-.0009-.0133-.0009-.0033 0-.0065.0007-.0098.0007C11.1345 14.977 9.5305 13.3702 9.5305 11.394zM23.2468 13.1226c0 2.2297-.7332 4.2863-1.9592 5.9608-1.1674-1.5687-2.7587-2.7393-4.5613-3.4218 1.2133-1.0265 1.9868-2.5576 1.9868-4.2675 0-3.083-2.5083-5.5913-5.5913-5.5913S7.5305 8.311 7.5305 11.394c0 1.7098.7734 3.2408 1.9866 4.2673-1.8004.6824-3.3901 1.853-4.5571 3.4215-1.2258-1.6743-1.9589-3.7309-1.9589-5.9603C3.0012 7.541 7.5422 3 13.1243 3 18.7058 3 23.2468 7.541 23.2468 13.1226zM52.8757 40.7544c-6.6846 0-12.1226 5.438-12.1226 12.1226 0 6.6372 5.4304 12.123 12.1226 12.123 6.6887 0 12.1231-5.4841 12.1231-12.123C64.9988 46.1924 59.5603 40.7544 52.8757 40.7544zM52.8757 42.7544c5.582 0 10.123 4.541 10.123 10.1226 0 2.2314-.7344 4.2897-1.9622 5.9648-1.1679-1.5688-2.7598-2.7394-4.5631-3.4215 1.2162-1.0265 1.9916-2.5596 1.9916-4.2719 0-3.083-2.5083-5.5913-5.5913-5.5913-3.0835 0-5.5918 2.5083-5.5918 5.5913 0 1.7117.775 3.2443 1.9905 4.2708-1.801.6815-3.3915 1.8515-4.5593 3.4197-1.2264-1.6746-1.9601-3.7318-1.9601-5.962C42.7532 47.2954 47.2942 42.7544 52.8757 42.7544zM52.8738 54.7397c-1.9805 0-3.5918-1.6108-3.5918-3.5913s1.6113-3.5913 3.5918-3.5913 3.5913 1.6108 3.5913 3.5913S54.8542 54.7397 52.8738 54.7397zM46.094 60.3705c1.5083-2.2484 4.0323-3.6273 6.7749-3.6273 2.7494 0 5.2775 1.3801 6.7862 3.6299C57.8583 61.9996 55.4846 63 52.8757 63 50.2657 63 47.891 61.9985 46.094 60.3705zM32.9988 40.646c4.2158 0 7.646-3.4302 7.646-7.646 0-4.209-3.4302-7.6328-7.646-7.6328-4.209 0-7.6328 3.4238-7.6328 7.6328C25.366 37.2158 28.7898 40.646 32.9988 40.646zM32.9988 27.3672c3.1133 0 5.646 2.5269 5.646 5.6328 0 3.1133-2.5327 5.646-5.646 5.646-3.106 0-5.6328-2.5327-5.6328-5.646C27.366 29.894 29.8928 27.3672 32.9988 27.3672z"/>
</svg>
